<?xml version="1.0" encoding="utf-8"?>
<!-- Generator: Adobe Illustrator 24.1.2, SVG Export Plug-In . SVG Version: 6.00 Build 0)  -->
<svg version="1.1" id="Layer_1" xmlns="http://www.w3.org/2000/svg" xmlns:xlink="http://www.w3.org/1999/xlink" x="0px" y="0px"
	 viewBox="0 0 1080 1080" style="enable-background:new 0 0 1080 1080;" xml:space="preserve">
<style type="text/css">
	.st0{fill:#353535;}
	.st1{opacity:0.23;}
</style>
<g>
	<path class="st0" d="M389,749.5V711l49.3-47.8c118.5-112.8,172-172.8,172.8-242.7c0-47.1-22.8-90.7-92.1-90.7
		c-42.1,0-77.1,21.4-98.5,39.3l-20-44.3c32.1-27.1,77.8-47.1,131.4-47.1c99.9,0,142.1,68.5,142.1,134.9
		c0,85.7-62.1,154.9-159.9,249.1L476.8,696v1.4h208.5v52.1H389z"/>
</g>
<g class="st1">
	<path class="st0" d="M540,976.5c-58.7,0-115.7-11.6-169.5-34.4c-51.9-22.1-98.6-53.6-138.8-93.8c-40.2-40.2-71.7-86.9-93.8-138.8
		c-22.9-53.8-34.4-110.8-34.4-169.5s11.6-115.7,34.4-169.5c22.1-51.9,53.6-98.6,93.8-138.8c40.2-40.2,86.9-71.7,138.8-93.8
		c53.8-22.9,110.8-34.4,169.5-34.4s115.7,11.6,169.5,34.4c51.9,22.1,98.6,53.6,138.8,93.8c40.2,40.2,71.7,86.9,93.8,138.8
		c22.9,53.8,34.4,110.8,34.4,169.5s-11.6,115.7-34.4,169.5c-22.1,51.9-53.6,98.6-93.8,138.8c-40.2,40.2-86.9,71.7-138.8,93.8
		C655.7,964.9,598.7,976.5,540,976.5z M540,104.5c-240.1,0-435.5,195.4-435.5,435.5c0,240.1,195.4,435.5,435.5,435.5h0
		c240.1,0,435.5-195.4,435.5-435.5C975.5,299.9,780.1,104.5,540,104.5z"/>
</g>
</svg>
