<?xml version="1.0" encoding="utf-8"?>
<!-- Generator: Adobe Illustrator 24.1.2, SVG Export Plug-In . SVG Version: 6.00 Build 0)  -->
<svg version="1.1" id="Layer_1" xmlns="http://www.w3.org/2000/svg" xmlns:xlink="http://www.w3.org/1999/xlink" x="0px" y="0px"
	 viewBox="0 0 1080 1080" style="enable-background:new 0 0 1080 1080;" xml:space="preserve">
<style type="text/css">
	.st0{fill:#353535;}
	.st1{opacity:0.23;}
</style>
<g>
	<path class="st0" d="M404,677.4c17.8,11.4,59.3,29.3,102.8,29.3c80.7,0,105.7-51.4,104.9-89.9c-0.7-65-59.3-92.8-119.9-92.8h-35
		v-47.1h35c45.7,0,103.5-23.6,103.5-78.5c0-37.1-23.6-70-81.4-70c-37.1,0-72.8,16.4-92.8,30.7l-16.4-45.7
		c24.3-17.8,71.4-35.7,121.4-35.7c91.4,0,132.8,54.3,132.8,110.7c0,47.8-28.6,88.5-85.7,109.2v1.4c57.1,11.4,103.5,54.3,103.5,119.2
		c0,74.2-57.8,139.2-169.2,139.2c-52.1,0-97.8-16.4-120.6-31.4L404,677.4z"/>
</g>
<g class="st1">
	<path class="st0" d="M540,976.5c-58.7,0-115.7-11.6-169.5-34.4c-51.9-22.1-98.6-53.6-138.8-93.8c-40.2-40.2-71.7-86.9-93.8-138.8
		c-22.9-53.8-34.4-110.8-34.4-169.5s11.6-115.7,34.4-169.5c22.1-51.9,53.6-98.6,93.8-138.8c40.2-40.2,86.9-71.7,138.8-93.8
		c53.8-22.9,110.8-34.4,169.5-34.4s115.7,11.6,169.5,34.4c51.9,22.1,98.6,53.6,138.8,93.8c40.2,40.2,71.7,86.9,93.8,138.8
		c22.9,53.8,34.4,110.8,34.4,169.5s-11.6,115.7-34.4,169.5c-22.1,51.9-53.6,98.6-93.8,138.8c-40.2,40.2-86.9,71.7-138.8,93.8
		C655.7,964.9,598.7,976.5,540,976.5z M540,104.5c-240.1,0-435.5,195.4-435.5,435.5c0,240.1,195.4,435.5,435.5,435.5
		S975.5,780.1,975.5,540C975.5,299.9,780.1,104.5,540,104.5z"/>
</g>
</svg>
