<?xml version="1.0" encoding="utf-8"?>
<!-- Generator: Adobe Illustrator 24.1.2, SVG Export Plug-In . SVG Version: 6.00 Build 0)  -->
<svg version="1.1" id="Layer_1" xmlns="http://www.w3.org/2000/svg" xmlns:xlink="http://www.w3.org/1999/xlink" x="0px" y="0px"
	 viewBox="0 0 1080 1080" style="enable-background:new 0 0 1080 1080;" xml:space="preserve">
<style type="text/css">
	.st0{fill:#353535;}
	.st1{opacity:0.23;}
</style>
<g>
	<path class="st0" d="M666,338.3H489l-17.8,119.2c10.7-1.4,20.7-2.9,37.8-2.9c35.7,0,71.4,7.9,99.9,25
		c36.4,20.7,66.4,60.7,66.4,119.2c0,90.7-72.1,158.5-172.8,158.5c-50.7,0-93.5-14.3-115.6-28.6l15.7-47.8
		c19.3,11.4,57.1,25.7,99.2,25.7c59.3,0,109.9-38.5,109.9-100.7c-0.7-60-40.7-102.8-133.5-102.8c-26.4,0-47.1,2.9-64.2,5l30-222.7
		h222V338.3z"/>
</g>
<g class="st1">
	<path class="st0" d="M540,976.5c-58.7,0-115.7-11.6-169.5-34.4c-51.9-22.1-98.6-53.6-138.8-93.8c-40.2-40.2-71.7-86.9-93.8-138.8
		c-22.9-53.8-34.4-110.8-34.4-169.5s11.6-115.7,34.4-169.5c22.1-51.9,53.6-98.6,93.8-138.8c40.2-40.2,86.9-71.7,138.8-93.8
		c53.8-22.9,110.8-34.4,169.5-34.4s115.7,11.6,169.5,34.4c51.9,22.1,98.6,53.6,138.8,93.8c40.2,40.2,71.7,86.9,93.8,138.8
		c22.9,53.8,34.4,110.8,34.4,169.5s-11.6,115.7-34.4,169.5c-22.1,51.9-53.6,98.6-93.8,138.8c-40.2,40.2-86.9,71.7-138.8,93.8
		C655.7,964.9,598.7,976.5,540,976.5z M540,104.5c-240.1,0-435.5,195.4-435.5,435.5S299.9,975.5,540,975.5h0
		c240.1,0,435.5-195.4,435.5-435.5S780.1,104.5,540,104.5z"/>
</g>
</svg>
