<?xml version="1.0" encoding="utf-8"?>
<!-- Generator: Adobe Illustrator 24.1.2, SVG Export Plug-In . SVG Version: 6.00 Build 0)  -->
<svg version="1.1" id="Layer_1" xmlns="http://www.w3.org/2000/svg" xmlns:xlink="http://www.w3.org/1999/xlink" x="0px" y="0px"
	 viewBox="0 0 1080 1080" style="enable-background:new 0 0 1080 1080;" xml:space="preserve">
<style type="text/css">
	.st0{fill:#353535;}
	.st1{opacity:0.23;}
</style>
<g>
	<path class="st0" d="M583.2,749.5V623.2H367.6v-41.4l207-296.3h67.8v288.4h65v49.3h-65v126.4H583.2z M583.2,573.9V419
		c0-24.3,0.7-48.5,2.1-72.8h-2.1c-14.3,27.1-25.7,47.1-38.5,68.5L431.1,572.5v1.4H583.2z"/>
</g>
<g class="st1">
	<path class="st0" d="M540,976.5c-58.7,0-115.7-11.6-169.5-34.4c-51.9-22.1-98.6-53.6-138.8-93.8c-40.2-40.2-71.7-86.9-93.8-138.8
		c-22.9-53.8-34.4-110.8-34.4-169.5s11.6-115.7,34.4-169.5c22.1-51.9,53.6-98.6,93.8-138.8c40.2-40.2,86.9-71.7,138.8-93.8
		c53.8-22.9,110.8-34.4,169.5-34.4s115.7,11.6,169.5,34.4c51.9,22.1,98.6,53.6,138.8,93.8c40.2,40.2,71.7,86.9,93.8,138.8
		c22.9,53.8,34.4,110.8,34.4,169.5s-11.6,115.7-34.4,169.5c-22.1,51.9-53.6,98.6-93.8,138.8c-40.2,40.2-86.9,71.7-138.8,93.8
		C655.7,964.9,598.7,976.5,540,976.5z M540,104.5c-240.1,0-435.5,195.4-435.5,435.5S299.9,975.5,540,975.5h0
		c240.1,0,435.5-195.4,435.5-435.5S780.1,104.5,540,104.5z"/>
</g>
</svg>
